HIERARCHY
ROOT Hips
{
	OFFSET 0.000000 88.474243 0.000000
	CHANNELS 6 Xposition Yposition Zposition Zrotation Yrotation Xrotation 
	JOINT Hips_Spine
	{
		OFFSET 0.000000 0.000000 0.000000
		CHANNELS 3 Zrotation Yrotation Xrotation
		JOINT Spine
		{
			OFFSET 0.005100 8.711998 -0.691000
			CHANNELS 3 Zrotation Yrotation Xrotation
			JOINT Spine1
			{
				OFFSET -0.009200 8.660301 -1.275000
				CHANNELS 3 Zrotation Yrotation Xrotation
				JOINT Spine2
				{
					OFFSET 0.006300 9.852501 -1.857000
					CHANNELS 3 Zrotation Yrotation Xrotation
					JOINT Spine2_Neck
					{
						OFFSET 0.000000 0.000000 0.000000
						CHANNELS 3 Zrotation Yrotation Xrotation
						JOINT Neck
						{
							OFFSET 0.016300 11.420799 -0.263300
							CHANNELS 3 Zrotation Yrotation Xrotation
							End Site #name: Head
							{
								OFFSET -0.019200 9.262405 2.362500
							}
						}
					}
					JOINT Spine2_LeftShoulder
					{
						OFFSET 0.000000 0.000000 0.000000
						CHANNELS 3 Zrotation Yrotation Xrotation
						JOINT LeftShoulder
						{
							OFFSET 5.616900 6.732201 -0.345700
							CHANNELS 3 Zrotation Yrotation Xrotation
							JOINT LeftArm
							{
								OFFSET 10.664888 -0.183372 -2.440700
								CHANNELS 3 Zrotation Yrotation Xrotation
								JOINT LeftForeArm
								{
									OFFSET 27.459126 0.000000 0.000000
									CHANNELS 3 Zrotation Yrotation Xrotation
									End Site #name: LeftHand
									{
										OFFSET 21.306858 0.000000 0.000000
									}
								}
							}
						}
					}
					JOINT Spine2_RightShoulder
					{
						OFFSET 0.000000 0.000000 0.000000
						CHANNELS 3 Zrotation Yrotation Xrotation
						JOINT RightShoulder
						{
							OFFSET -5.580300 6.737503 -0.344400
							CHANNELS 3 Zrotation Yrotation Xrotation
							JOINT RightArm
							{
								OFFSET -10.679335 -0.188484 -2.383900
								CHANNELS 3 Zrotation Yrotation Xrotation
								JOINT RightForeArm
								{
									OFFSET -27.503529 0.000000 0.000000
									CHANNELS 3 Zrotation Yrotation Xrotation
									End Site #name: RightHand
									{
										OFFSET -21.306808 0.000000 0.000000
									}
								}
							}
						}
					}
				}
			}
		}
	}
	JOINT Hips_LeftUpLeg
	{
		OFFSET 0.000000 0.000000 0.000000
		CHANNELS 3 Zrotation Yrotation Xrotation
		JOINT LeftUpLeg
		{
			OFFSET 6.857700 -6.739601 0.312100
			CHANNELS 3 Zrotation Yrotation Xrotation
			JOINT LeftLeg
			{
				OFFSET -0.367590 -34.731552 -4.572400
				CHANNELS 3 Zrotation Yrotation Xrotation
				End Site #name: LeftFoot
				{
					OFFSET 0.367590 -34.656704 -6.067400
				}
			}
		}
	}
	JOINT Hips_RightUpLeg
	{
		OFFSET 0.000000 0.000000 0.000000
		CHANNELS 3 Zrotation Yrotation Xrotation
		JOINT RightUpLeg
		{
			OFFSET -6.876100 -6.733299 0.301000
			CHANNELS 3 Zrotation Yrotation Xrotation
			JOINT RightLeg
			{
				OFFSET 0.347353 -34.795158 -4.515900
				CHANNELS 3 Zrotation Yrotation Xrotation
				End Site #name: RightFoot
				{
					OFFSET -0.347353 -34.589367 -6.070300
				}
			}
		}
	}
}
MOTION
Frames: 13
Frame Time: 0.041667
-1.058285 1.864953 0.343290 8.763370 47.870130 -16.914868 0.000000 -0.000000 0.000000 -7.855857 4.843414 -26.350971 5.788776 -8.644650 -5.814289 0.000000 0.000000 0.000000 3.910724 -0.707774 0.776784 -13.952353 -1.868489 -7.182099 14.211527 2.661637 -7.395939 -54.962906 -31.247125 7.360526 -156.788530 46.432233 -115.847157 -179.658158 -31.877691 177.064635 5.588137 3.070129 -4.058186 9.720262 5.420283 6.053158 165.087328 69.562241 38.436095 0.553372 29.043794 4.518421 0.000000 -0.000000 0.000000 40.505353 6.046708 36.508185 59.105506 27.358464 108.488272 -0.000000 -0.000000 0.000000 82.113197 8.161746 -3.829269 -14.784586 7.490328 -81.179609 
-2.625885 4.359483 0.330213 14.460153 42.921528 -16.841109 0.000000 -0.000000 0.000000 -1.311912 8.792889 -51.066960 3.753511 -6.244111 7.128985 0.000000 0.000000 0.000000 -2.068256 1.830127 2.478945 -27.067583 5.402077 -10.131211 16.231234 0.648639 -8.402973 -81.363879 -34.038865 15.954296 -155.671337 44.639636 -120.052356 175.525081 -30.763908 178.649770 6.721813 1.631823 -12.399304 19.763860 17.897815 -0.788885 -69.901433 88.906106 160.370084 -3.656448 73.478024 -1.351361 0.000000 -0.000000 0.000000 37.956220 -9.645935 39.792045 59.703810 22.463236 127.207664 -0.000000 -0.000000 0.000000 72.666481 -0.750621 -25.812239 -18.811005 3.707206 -81.100577 
-4.564900 6.775446 0.430321 14.397585 49.062446 -17.282311 0.000000 -0.000000 0.000000 2.763965 10.966264 -56.635678 2.865299 -5.066100 11.762946 0.000000 0.000000 0.000000 -3.723113 3.912012 11.477134 -33.485376 12.271895 -5.893146 15.729824 0.144202 -9.710198 -92.342780 -30.988707 16.077840 -150.316375 45.438728 -116.499844 175.809179 -25.338092 179.164439 6.980007 1.894121 -10.843707 32.524721 4.496295 -9.618974 24.508618 70.953040 -117.041814 -173.505794 55.762794 -174.864352 0.000000 -0.000000 0.000000 31.547325 -13.906789 38.726213 73.373136 25.893577 125.348584 -0.000000 -0.000000 0.000000 67.687899 5.828100 -33.320198 -20.659727 7.254576 -76.014094 
-6.724985 9.396438 0.654870 14.005444 55.938272 -17.176683 0.000000 -0.000000 0.000000 4.621331 13.505465 -57.725815 1.681175 -5.424053 11.148761 0.000000 0.000000 0.000000 -4.838765 4.102800 12.933134 -39.435901 15.553728 -2.136005 14.112305 -1.757631 -9.665326 -97.801269 -28.415782 15.149733 -148.704413 48.396292 -117.785209 176.543681 -23.682471 178.850780 6.078692 0.627048 -11.411878 35.620444 1.215953 -11.854067 35.586998 58.674683 -119.730541 -174.877999 35.135580 -176.354208 -0.000000 -0.000000 0.000000 29.029484 -17.746533 39.645681 75.495492 28.712702 122.745902 -0.000000 -0.000000 0.000000 67.246589 6.154542 -35.937141 -20.721429 7.006130 -73.254238 
-9.040255 12.140650 1.067970 12.984419 63.106764 -17.521815 0.000000 -0.000000 0.000000 6.446464 15.149251 -55.678235 0.754915 -6.196585 9.589361 0.000000 0.000000 0.000000 -5.345219 3.086133 11.900318 -46.127180 15.987436 -2.646632 12.813488 -3.093374 -9.180695 -99.286869 -26.302868 14.709915 -149.165967 50.256574 -120.048270 176.971816 -25.311595 178.608047 4.050801 -1.181867 -11.190061 38.193062 -0.935158 -13.969546 38.600950 54.354751 -125.980741 -176.677254 21.541334 -177.382050 -0.000000 -0.000000 0.000000 29.772099 -18.999157 38.738058 75.284122 29.419366 121.966899 -0.000000 -0.000000 0.000000 67.553772 5.652496 -37.503414 -21.481187 8.119008 -71.005466 
-11.461118 14.997388 1.605934 12.064552 68.303294 -17.919513 0.000000 -0.000000 0.000000 7.411573 15.130014 -52.881154 0.022970 -7.431667 7.896710 0.000000 0.000000 0.000000 -5.775499 2.171196 10.796975 -51.812638 17.185118 -3.371093 11.515916 -3.819891 -8.653912 -99.541252 -25.382250 14.061766 -151.591587 51.214568 -122.500474 177.007218 -27.163338 178.500312 2.589440 -2.666867 -10.605021 42.063204 -2.621182 -15.598909 40.338322 50.998438 -130.080945 -177.759643 20.801347 -177.313349 -0.000000 -0.000000 0.000000 31.630741 -20.217742 35.551672 74.717630 30.067248 120.957926 -0.000000 -0.000000 0.000000 68.395620 5.009626 -37.403422 -22.343430 9.039420 -68.870577 
-13.933689 17.961519 2.235337 11.014477 72.152738 -18.570478 0.000000 -0.000000 0.000000 7.897025 14.713419 -50.407696 -0.457673 -9.001790 6.302936 0.000000 0.000000 0.000000 -5.898262 1.144315 9.922864 -54.924295 19.422252 -3.078491 9.644889 -4.310301 -7.993300 -99.261298 -24.694248 13.044705 -154.870487 51.539236 -124.637853 176.913987 -27.860233 178.462459 1.147886 -3.882741 -9.648648 46.108209 -4.733365 -17.294185 42.275893 47.757258 -131.828732 -178.096777 23.074955 -177.337141 -0.000000 -0.000000 0.000000 34.629097 -21.209659 32.335064 73.035695 30.620515 119.447002 -0.000000 -0.000000 0.000000 69.104040 4.572173 -36.858861 -22.924889 10.035965 -68.142007 
-16.413574 20.908648 2.940196 10.160554 75.338085 -19.080347 0.000000 -0.000000 0.000000 8.066815 14.237628 -48.282332 -0.671156 -11.054626 4.318197 0.000000 0.000000 0.000000 -6.012920 0.131139 9.009938 -56.996701 20.938736 -2.768200 8.055582 -4.650201 -7.439114 -99.040390 -24.297260 12.269430 -157.503328 51.837336 -126.233216 176.832216 -28.616518 178.404338 -0.153245 -4.701114 -8.747685 49.625862 -5.649844 -18.276501 43.312143 45.952854 -132.704178 -178.423804 25.467401 -177.283329 -0.000000 -0.000000 0.000000 37.310575 -21.888915 29.517096 70.359782 30.809799 117.574806 -0.000000 -0.000000 0.000000 70.670271 4.955300 -35.250019 -23.250358 11.054469 -66.943839 
-18.851557 23.794582 3.661722 9.279259 78.424334 -19.442466 0.000000 -0.000000 0.000000 8.242694 14.046813 -46.195686 -0.770441 -13.016523 2.743229 0.000000 0.000000 0.000000 -6.172120 -0.677382 8.142332 -59.289423 21.610008 -3.228343 6.521099 -4.778306 -7.126247 -98.711928 -23.580297 11.127146 -158.841108 52.038195 -127.074621 176.795567 -29.796518 178.321899 -1.350610 -5.575989 -7.907860 51.454922 -4.698762 -17.673459 43.914592 45.408041 -132.930605 -178.814446 26.937281 -177.217049 -0.000000 -0.000000 0.000000 39.422860 -22.019391 26.811759 67.017943 30.443025 115.572753 -0.000000 -0.000000 0.000000 72.042562 6.282209 -34.149248 -23.284109 12.000179 -64.713405 
-21.242050 26.588989 4.396968 8.388120 81.237454 -19.734759 0.000000 -0.000000 0.000000 8.344992 13.871230 -44.346268 -0.810876 -14.509895 1.489147 0.000000 0.000000 0.000000 -6.391735 -1.488299 7.405943 -61.879074 21.256358 -4.839822 5.096328 -4.796623 -6.744501 -98.316775 -22.820279 9.958726 -159.861140 52.047747 -127.779768 176.798367 -30.811998 178.205231 -2.488069 -6.311449 -7.208430 52.365223 -3.689411 -16.976476 44.117757 45.522391 -133.054535 -179.090382 27.606256 -177.216318 -0.000000 -0.000000 0.000000 41.178325 -21.587403 24.109704 63.370981 29.290156 113.853156 -0.000000 -0.000000 0.000000 72.827709 8.386318 -33.833594 -23.146454 13.089552 -62.121574 
-23.567644 29.311003 5.144743 7.236037 83.650444 -20.308803 0.000000 -0.000000 0.000000 8.433643 13.588460 -42.595023 -0.877900 -15.680754 0.376572 0.000000 0.000000 0.000000 -6.600621 -2.242781 6.640369 -64.154178 20.296970 -6.867094 3.759956 -4.828456 -6.271923 -97.972749 -22.015283 8.827862 -160.740922 51.894631 -128.452818 176.850053 -30.883138 178.055020 -3.551832 -6.765245 -6.642151 52.572769 -2.509023 -16.128205 44.059879 46.154653 -133.105902 -179.279780 28.246497 -177.334698 -0.000000 -0.000000 0.000000 42.691819 -20.973270 21.453372 60.267153 27.883038 112.690524 -0.000000 -0.000000 0.000000 73.576363 10.757126 -33.373264 -22.944608 14.347885 -59.484571 
-25.808817 31.970198 5.894534 6.062001 85.455601 -21.057637 0.000000 -0.000000 0.000000 8.791564 13.467586 -40.798679 -0.912616 -16.906388 -0.731154 0.000000 0.000000 0.000000 -6.862919 -2.973360 5.983678 -65.986206 19.191125 -8.709839 2.465866 -4.904667 -5.709031 -97.730967 -21.181594 7.780141 -161.613417 51.613352 -129.120076 176.904452 -30.931030 177.900466 -4.621697 -7.291884 -5.942338 53.168131 -1.691255 -15.472476 43.717873 46.906480 -133.321902 -179.199266 28.011357 -177.630884 -0.000000 -0.000000 0.000000 44.060519 -20.664871 19.039428 57.394618 26.468607 111.904598 -0.000000 -0.000000 0.000000 74.334950 12.971533 -32.646306 -22.672475 15.681150 -56.932674 
-27.928043 34.590294 6.641006 5.592365 86.465835 -21.297679 0.000000 -0.000000 0.000000 8.889217 13.148273 -39.051313 -0.880237 -18.129353 -1.974274 0.000000 0.000000 0.000000 -7.105745 -3.905819 5.164590 -67.356975 18.094084 -10.143783 1.100273 -5.032920 -5.053448 -97.538707 -20.374708 6.791326 -162.455995 51.305921 -129.792627 176.951207 -31.011735 177.735420 -5.723968 -7.916302 -5.007148 54.312930 -1.193816 -15.043239 43.078210 47.726139 -133.703982 -178.997323 27.252158 -178.042861 -0.000000 -0.000000 0.000000 45.294286 -20.697807 17.281933 55.009524 25.367878 111.264091 -0.000000 -0.000000 0.000000 75.350394 15.125737 -31.545977 -22.423298 17.040279 -54.606047 
